<?xml version="1.0" encoding="utf-8"?>
<!-- Generator: Adobe Illustrator 27.0.0, SVG Export Plug-In . SVG Version: 6.00 Build 0)  -->
<svg version="1.1" xmlns="http://www.w3.org/2000/svg" xmlns:xlink="http://www.w3.org/1999/xlink" x="0px" y="0px"
	 viewBox="0 0 600 600" style="enable-background:new 0 0 600 600;" xml:space="preserve">
<style type="text/css">
	.st0{fill:#FFFFFF;}
</style>
<g id="Logo_06:_600_x__x_600_px">
	<g id="Graphic_Elements_5_">
	</g>
	<g id="Text_5_">
	</g>
</g>
<g id="Logo_05:_600_x__x_600_px">
	<g id="Graphic_Elements_4_">
	</g>
	<g id="Text_4_">
	</g>
</g>
<g id="Logo_04:_600_x__x_600_px">
	<g id="Graphic_Elements_3_">
	</g>
	<g id="Text_3_">
	</g>
</g>
<g id="Logo_03:_600_x__x_600_px">
	<g id="Graphic_Elements_2_">
	</g>
	<g id="Text_2_">
		<g>
			<g>
				<path class="st0" d="M131.37,386.36c4.26-4.15,8.51-8.3,12.77-12.44c1.16-0.71,2.42-1.31,3.48-2.15
					c36.69-28.98,88.45-33.29,129.2-10.4c7.52,4.23,14.38,9.65,21.54,14.52c4.15,4.26,8.3,8.51,12.44,12.77
					c0.61,1.04,1.11,2.17,1.85,3.11c30.5,38.69,33.88,91.47,8.34,133.64c-3.67,6.06-8.09,11.66-12.16,17.47
					c-4.26,4.15-8.51,8.3-12.77,12.44c-1.16,0.71-2.38,1.34-3.47,2.14c-40.15,29.53-82.72,33.15-127.29,11.3
					c-8.33-4.08-15.66-10.22-23.45-15.41c-3.17-3.25-6.34-6.51-9.52-9.76c20.82-5.11,26.34-20.48,15.03-42.15
					c17.34-5.76,27.7-17.59,28.49-35.94c0.9-21.03-10.42-34.1-29.9-40.48c5-16.95-0.07-27.38-16.58-34.57
					C130.04,389.08,130.71,387.72,131.37,386.36z"/>
				<path class="st0" d="M81.82,491.77c-3.01-9.9-1.39-16.29,5.11-20.21c6.34-3.81,13.67-2.86,18.55,2.4
					c4.44,4.79,5.11,12.49,1.56,17.92c-3.82,5.84-11.35,8.17-17.98,5.56c-0.95-0.38-1.9-0.77-2.85-1.16
					C84.75,494.77,83.29,493.27,81.82,491.77z"/>
				<path class="st0" d="M104.34,412.71c4.76-1.36,9.45-1.59,12.73,2.82c2.86,3.85,2.91,8.13-0.17,12.04
					c-2.8,3.55-6.66,4.56-10.75,3.04c-4.56-1.69-6.69-5.35-6.31-10.26c0.1-1.34,0.5-2.65,0.76-3.98
					C101.83,415.15,103.08,413.93,104.34,412.71z"/>
				<path class="st0" d="M143.41,456.78c3.94,3.92,4.01,9.5,0.17,13.47c-3.85,3.98-10.1,3.97-13.92-0.01
					c-3.62-3.77-3.51-9.94,0.22-13.6C133.67,452.92,139.59,452.98,143.41,456.78z"/>
				<path class="st0" d="M545.24,286.79c7.39-55.51-7.74-106.72-33.69-154.73c-12.76-23.6-24.11-46.78-25.09-74.01
					c-0.68-19.1-9.66-30.89-29.52-33.49c-5.53-0.73-10.97-3.03-16.15-5.29c-9.56-4.18-14.34-2.27-17.88,8.56
					c-33.01,101.06-66.57,201.94-100.07,302.85c-8.92,26.86-18.07,53.63-27.09,80.25c17.33,15.07,29.24,35.34,42.64,54.27
					c29.25-87.02,57.99-174.22,86.96-261.34c1.35-4.07,3.18-7.99,5.05-12.65c2.94,1.64,5.02,2.16,6.08,3.48
					c15.06,18.84,31.43,36.84,44.51,56.98c11.91,18.34,12.19,39.46,3.27,59.94c-5.43,12.48-11.24,24.79-16.87,37.18
					c-1.1,2.41-2.41,4.74-3.28,7.23c-4.41,12.6-1.19,24.63,8.01,30.33c9.13,5.66,20.3,3.9,29.4-6.57
					C524.82,353,540.51,322.27,545.24,286.79z"/>
			</g>
			<g>
				<g>
					<path class="st0" d="M71.37,444.84c-0.58,0.89-1.16,1.54-1.74,1.95c-0.52,0.4-0.95,0.54-1.3,0.42
						c-0.27-0.09-0.57-0.3-0.89-0.63c-0.32-0.33-0.58-0.68-0.78-1.05c-0.2-0.37-0.27-0.65-0.21-0.83c0.04-0.11,0.23-0.33,0.58-0.66
						c0.49-0.49,0.89-0.95,1.21-1.37c0.32-0.42,0.59-0.95,0.8-1.59c0.24-0.72,0.3-1.37,0.18-1.97c-0.12-0.6-0.53-1.02-1.25-1.25
						c-0.59-0.19-1.13-0.11-1.62,0.24c-0.49,0.36-1.12,0.99-1.89,1.89l-0.97,1.08c-0.93,0.97-1.91,1.66-2.95,2.05
						c-1.03,0.39-2.3,0.34-3.8-0.16c-1.24-0.41-2.18-1.06-2.81-1.95c-0.63-0.89-0.98-1.89-1.05-3.01c-0.07-1.12,0.09-2.25,0.46-3.39
						c0.31-0.93,0.69-1.75,1.13-2.45c0.44-0.7,0.89-1.21,1.35-1.55c0.43-0.31,0.79-0.41,1.08-0.31c0.26,0.08,0.55,0.27,0.88,0.56
						c0.33,0.29,0.6,0.6,0.8,0.94c0.21,0.33,0.27,0.6,0.21,0.8c-0.03,0.09-0.13,0.23-0.29,0.41c-0.16,0.18-0.29,0.33-0.4,0.46
						c-0.44,0.59-0.77,1.24-1.01,1.95c-0.31,0.96-0.38,1.67-0.19,2.15c0.19,0.48,0.48,0.78,0.88,0.92c0.48,0.16,0.91,0.16,1.31,0.01
						c0.4-0.15,0.75-0.38,1.06-0.69c0.31-0.3,0.74-0.76,1.29-1.37c0.78-0.9,1.48-1.62,2.09-2.14c0.61-0.53,1.37-0.92,2.27-1.16
						c0.9-0.24,1.93-0.17,3.08,0.21c1.41,0.47,2.47,1.15,3.17,2.04c0.7,0.89,1.1,1.87,1.19,2.94c0.09,1.07-0.04,2.14-0.39,3.23
						C72.46,442.86,71.95,443.95,71.37,444.84z"/>
					<path class="st0" d="M76.43,424.7c-2.31,0.63-4.96,0.21-7.94-1.29c-2.98-1.49-4.91-3.35-5.79-5.58
						c-0.88-2.23-0.65-4.69,0.69-7.36c1.34-2.68,3.16-4.33,5.47-4.95c2.31-0.63,4.95-0.19,7.94,1.3c2.98,1.49,4.91,3.35,5.8,5.57
						c0.88,2.22,0.65,4.67-0.69,7.35S78.74,424.07,76.43,424.7z M78.59,414.16c-0.65-1.21-1.92-2.29-3.84-3.25
						c-1.91-0.96-3.54-1.33-4.89-1.12c-1.35,0.21-2.36,1.01-3.06,2.39c-0.69,1.38-0.72,2.68-0.09,3.89c0.63,1.21,1.91,2.3,3.82,3.26
						c1.91,0.96,3.55,1.33,4.91,1.11c1.36-0.22,2.38-1.02,3.07-2.4C79.21,416.66,79.24,415.36,78.59,414.16z"/>
					<path class="st0" d="M90.61,400.91c-1.85,0.47-3.68,0.05-5.47-1.25l-10.21-7.4c-0.5-0.36-0.41-1.01,0.27-1.95l0.58-0.8
						c0.68-0.94,1.27-1.22,1.77-0.86l9.97,7.24c0.83,0.6,1.72,0.8,2.68,0.59c0.96-0.21,1.78-0.78,2.46-1.72
						c0.68-0.94,0.97-1.9,0.88-2.89c-0.1-0.99-0.55-1.78-1.38-2.38l-9.97-7.23c-0.5-0.36-0.41-1.01,0.27-1.95l0.56-0.77
						c0.68-0.94,1.27-1.23,1.77-0.86l10.21,7.4c1.8,1.3,2.76,2.91,2.89,4.81c0.13,1.91-0.59,3.94-2.15,6.09
						C94.17,399.13,92.46,400.44,90.61,400.91z"/>
					<path class="st0" d="M106.2,382.04l-13.02-13.15c-0.43-0.44-0.24-1.07,0.58-1.88l0.88-0.88c0.33-0.33,0.64-0.56,0.94-0.7
						c0.29-0.14,0.62-0.17,0.97-0.09l11.69,2.55c0.67,0.13,1.31,0.29,1.94,0.48l0.06-0.1c-0.34-0.29-0.81-0.74-1.43-1.36l-6.76-6.83
						c-0.43-0.44-0.24-1.06,0.58-1.88l0.6-0.59c0.82-0.82,1.45-1,1.89-0.56l13.02,13.15c0.43,0.44,0.24,1.07-0.58,1.88l-0.78,0.77
						c-0.33,0.33-0.64,0.56-0.93,0.7c-0.29,0.14-0.62,0.17-0.97,0.09l-11.9-2.55c-0.67-0.12-1.31-0.28-1.94-0.48l-0.06,0.1
						c0.34,0.29,0.81,0.74,1.43,1.36l6.86,6.92c0.43,0.44,0.24,1.07-0.58,1.88l-0.6,0.59C107.27,382.29,106.64,382.47,106.2,382.04z
						"/>
					<path class="st0" d="M126.57,363.97c-0.26-0.04-0.5-0.23-0.74-0.56l-10.42-14.59c-0.23-0.33-0.33-0.62-0.29-0.88
						c0.04-0.26,0.23-0.5,0.56-0.74l5.04-3.6c2.44-1.74,4.81-2.36,7.12-1.87c2.31,0.49,4.41,2.07,6.31,4.72
						c1.89,2.65,2.7,5.15,2.42,7.5c-0.28,2.35-1.64,4.39-4.08,6.13l-5.04,3.6C127.12,363.92,126.83,364.02,126.57,363.97z
						 M130.29,357c1.26-0.9,1.89-2.01,1.91-3.35c0.02-1.34-0.57-2.85-1.77-4.53c-1.2-1.68-2.43-2.73-3.71-3.15
						c-1.27-0.42-2.54-0.18-3.79,0.72l-2.33,1.67l7.36,10.31L130.29,357z"/>
					<path class="st0" d="M160.52,343.39c-0.24-0.1-0.44-0.34-0.59-0.71l-6.81-16.59c-0.15-0.37-0.18-0.68-0.08-0.92
						c0.1-0.24,0.34-0.44,0.71-0.59l5.31-2.18c2.18-0.9,3.95-1.13,5.31-0.71c1.36,0.42,2.35,1.37,2.96,2.85
						c0.37,0.89,0.43,1.82,0.19,2.78c-0.24,0.96-0.71,1.79-1.41,2.47l0.07,0.1c1.14-0.22,2.22-0.05,3.25,0.51
						c1.02,0.56,1.75,1.36,2.17,2.39c0.72,1.75,0.71,3.32-0.02,4.72c-0.73,1.39-2.22,2.55-4.45,3.47l-5.68,2.33
						C161.06,343.46,160.76,343.49,160.52,343.39z M161.72,330.03c0.79-0.32,1.32-0.76,1.61-1.32c0.28-0.55,0.3-1.13,0.06-1.71
						c-0.54-1.32-1.63-1.65-3.25-0.98l-1.9,0.78l1.64,3.99L161.72,330.03z M165.68,337.47c0.79-0.32,1.32-0.76,1.59-1.31
						c0.28-0.55,0.27-1.17-0.02-1.87c-0.29-0.7-0.75-1.12-1.39-1.26c-0.64-0.14-1.43-0.02-2.36,0.36l-2.2,0.9l1.75,4.26
						L165.68,337.47z"/>
					<path class="st0" d="M181.79,334.93l-5-17.82c-0.17-0.61,0.3-1.07,1.42-1.39l0.98-0.27c1.11-0.31,1.76-0.16,1.93,0.45l5,17.82
						c0.17,0.61-0.3,1.07-1.42,1.39l-0.98,0.27C182.6,335.69,181.96,335.54,181.79,334.93z"/>
					<path class="st0" d="M199.78,330.71l-2.49-15.39l-4.55,0.74c-0.3,0.05-0.54-0.03-0.71-0.24c-0.17-0.21-0.3-0.56-0.38-1.05
						l-0.14-0.89c-0.08-0.49-0.07-0.86,0.03-1.12c0.1-0.25,0.3-0.4,0.6-0.45l13.52-2.19c0.3-0.05,0.54,0.03,0.71,0.24
						c0.17,0.21,0.3,0.56,0.38,1.05l0.14,0.88c0.08,0.49,0.07,0.87-0.02,1.12c-0.1,0.25-0.3,0.4-0.6,0.45l-4.55,0.74l2.49,15.39
						c0.1,0.61-0.42,1.01-1.57,1.19l-1,0.16C200.5,331.53,199.88,331.32,199.78,330.71z"/>
					<path class="st0" d="M218.54,329.03c-0.19-0.18-0.29-0.47-0.3-0.87l-0.47-17.92c-0.01-0.41,0.07-0.7,0.25-0.89
						c0.18-0.19,0.47-0.29,0.88-0.3l10.16-0.27c0.31-0.01,0.53,0.1,0.68,0.33c0.14,0.23,0.22,0.59,0.23,1.09l0.02,0.9
						c0.01,0.5-0.05,0.87-0.18,1.1c-0.13,0.24-0.35,0.36-0.66,0.36l-6.86,0.18l0.11,4.19l6.08-0.16c0.31-0.01,0.53,0.1,0.68,0.33
						c0.14,0.23,0.22,0.59,0.23,1.09l0.02,0.9c0.01,0.5-0.04,0.87-0.17,1.1c-0.13,0.23-0.35,0.36-0.66,0.36l-6.08,0.16l0.12,4.69
						l6.89-0.18c0.31-0.01,0.53,0.1,0.67,0.33c0.14,0.23,0.22,0.59,0.23,1.1l0.02,0.9c0.01,0.5-0.04,0.87-0.17,1.1
						c-0.13,0.24-0.35,0.36-0.66,0.37l-10.19,0.27C219.03,329.29,218.73,329.21,218.54,329.03z"/>
					<path class="st0" d="M241.89,329.47c-0.99-0.38-1.75-0.8-2.28-1.29c-0.5-0.42-0.73-0.81-0.69-1.18c0.03-0.29,0.17-0.62,0.43-1
						c0.25-0.38,0.54-0.71,0.86-0.99c0.32-0.28,0.58-0.41,0.77-0.38c0.11,0.01,0.37,0.16,0.77,0.43c0.58,0.37,1.11,0.67,1.6,0.89
						c0.48,0.23,1.06,0.37,1.73,0.44c0.75,0.08,1.4,0,1.96-0.25s0.88-0.74,0.95-1.49c0.06-0.61-0.13-1.12-0.58-1.53
						c-0.45-0.41-1.2-0.89-2.25-1.44l-1.26-0.71c-1.15-0.7-2.03-1.51-2.63-2.44c-0.6-0.92-0.82-2.17-0.66-3.75
						c0.14-1.3,0.57-2.36,1.3-3.17c0.73-0.8,1.64-1.36,2.72-1.67c1.08-0.3,2.22-0.39,3.41-0.27c0.98,0.1,1.86,0.3,2.63,0.58
						c0.78,0.28,1.38,0.61,1.8,0.98c0.39,0.35,0.57,0.68,0.54,0.99c-0.03,0.27-0.15,0.6-0.36,0.98c-0.22,0.38-0.46,0.71-0.74,0.98
						c-0.28,0.27-0.53,0.4-0.74,0.38c-0.1-0.01-0.25-0.07-0.46-0.19c-0.21-0.12-0.39-0.22-0.54-0.29c-0.67-0.3-1.38-0.49-2.13-0.57
						c-1-0.1-1.71-0.01-2.14,0.27c-0.43,0.29-0.66,0.64-0.71,1.06c-0.05,0.5,0.04,0.93,0.27,1.28c0.23,0.36,0.53,0.65,0.9,0.89
						s0.9,0.56,1.62,0.97c1.05,0.57,1.89,1.1,2.54,1.58c0.65,0.49,1.19,1.14,1.62,1.97c0.43,0.83,0.58,1.85,0.45,3.06
						c-0.15,1.48-0.59,2.65-1.31,3.53c-0.72,0.88-1.59,1.47-2.62,1.79c-1.02,0.32-2.1,0.42-3.23,0.3
						C244.06,330.1,242.88,329.84,241.89,329.47z"/>
				</g>
			</g>
		</g>
	</g>
</g>
<g id="Logo_02:_600_x__x_600_px">
	<g id="Graphic_Elements_1_">
	</g>
	<g id="Text_1_">
	</g>
</g>
<g id="Logo_01:_600_x__x_600_px">
	<g id="Graphic_Elements">
	</g>
	<g id="Text">
	</g>
</g>
</svg>
