<?xml version="1.0" encoding="utf-8"?>
<!-- Generator: Adobe Illustrator 27.0.0, SVG Export Plug-In . SVG Version: 6.00 Build 0)  -->
<svg version="1.1" xmlns="http://www.w3.org/2000/svg" xmlns:xlink="http://www.w3.org/1999/xlink" x="0px" y="0px"
	 viewBox="0 0 600 600" style="enable-background:new 0 0 600 600;" xml:space="preserve">
<style type="text/css">
	.st0{fill:#FFFFFF;}
</style>
<g id="Logo_06:_600_x__x_600_px">
	<g id="Graphic_Elements_5_">
	</g>
	<g id="Text_5_">
	</g>
</g>
<g id="Logo_05:_600_x__x_600_px">
	<g id="Graphic_Elements_4_">
	</g>
	<g id="Text_4_">
	</g>
</g>
<g id="Logo_04:_600_x__x_600_px">
	<g id="Graphic_Elements_3_">
		<g>
			<g>
				<g>
					<path class="st0" d="M296.53,320.21c-0.59,0.89-1.17,1.55-1.76,1.97c-0.52,0.4-0.96,0.54-1.31,0.42
						c-0.28-0.09-0.58-0.3-0.9-0.64c-0.32-0.33-0.58-0.69-0.78-1.06c-0.2-0.38-0.27-0.66-0.21-0.84c0.04-0.11,0.23-0.33,0.59-0.66
						c0.49-0.49,0.9-0.95,1.23-1.38s0.6-0.96,0.81-1.61c0.24-0.72,0.3-1.38,0.19-1.99c-0.12-0.6-0.54-1.03-1.26-1.27
						c-0.59-0.2-1.14-0.12-1.64,0.24c-0.5,0.36-1.14,0.99-1.91,1.9l-0.98,1.09c-0.94,0.98-1.94,1.66-2.98,2.06
						c-1.04,0.39-2.32,0.33-3.84-0.17c-1.26-0.42-2.2-1.08-2.84-1.98c-0.63-0.9-0.98-1.92-1.05-3.05c-0.06-1.13,0.1-2.27,0.48-3.41
						c0.31-0.94,0.7-1.77,1.15-2.47c0.45-0.7,0.91-1.22,1.37-1.56c0.43-0.31,0.79-0.41,1.09-0.31c0.26,0.09,0.55,0.28,0.89,0.57
						c0.33,0.3,0.6,0.61,0.81,0.95c0.21,0.34,0.28,0.61,0.21,0.81c-0.03,0.09-0.13,0.23-0.29,0.41c-0.16,0.18-0.3,0.34-0.4,0.47
						c-0.44,0.59-0.79,1.25-1.03,1.97c-0.32,0.96-0.39,1.68-0.2,2.17c0.19,0.49,0.48,0.79,0.89,0.93c0.48,0.16,0.92,0.16,1.32,0.01
						c0.4-0.15,0.76-0.38,1.08-0.69c0.32-0.31,0.75-0.77,1.31-1.38c0.8-0.91,1.5-1.63,2.12-2.16c0.62-0.53,1.39-0.92,2.3-1.16
						c0.91-0.24,1.95-0.16,3.11,0.23c1.42,0.47,2.49,1.16,3.19,2.07c0.7,0.9,1.11,1.89,1.2,2.97c0.09,1.08-0.04,2.16-0.41,3.25
						C297.63,318.22,297.12,319.32,296.53,320.21z"/>
					<path class="st0" d="M301.33,298.61c-2.22,0.96-4.93,0.91-8.13-0.16c-3.2-1.07-5.39-2.65-6.59-4.76
						c-1.2-2.1-1.32-4.59-0.36-7.45c0.96-2.86,2.55-4.77,4.77-5.73c2.22-0.95,4.93-0.9,8.12,0.17c3.2,1.07,5.4,2.65,6.6,4.74
						c1.2,2.09,1.32,4.57,0.36,7.44C305.14,295.74,303.55,297.65,301.33,298.61z M301.97,287.77c-0.82-1.11-2.25-2.02-4.31-2.7
						c-2.05-0.68-3.74-0.83-5.05-0.42c-1.32,0.4-2.22,1.34-2.72,2.82c-0.49,1.48-0.33,2.78,0.47,3.9c0.81,1.12,2.24,2.02,4.29,2.71
						c2.05,0.68,3.74,0.82,5.07,0.41c1.33-0.41,2.24-1.35,2.73-2.83C302.96,290.18,302.79,288.88,301.97,287.77z"/>
					<path class="st0" d="M311.41,271.07c-1.64,1.01-3.53,1.16-5.65,0.46l-12.09-4.04c-0.59-0.2-0.7-0.85-0.33-1.96l0.31-0.94
						c0.37-1.11,0.85-1.57,1.44-1.37l11.81,3.94c0.98,0.33,1.9,0.24,2.76-0.25c0.86-0.49,1.48-1.29,1.85-2.4
						c0.37-1.11,0.36-2.12-0.03-3.04c-0.39-0.92-1.08-1.55-2.06-1.87l-11.81-3.94c-0.59-0.2-0.7-0.85-0.33-1.96l0.31-0.91
						c0.37-1.11,0.85-1.57,1.44-1.37l12.09,4.04c2.12,0.71,3.54,1.96,4.24,3.76c0.71,1.8,0.63,3.97-0.22,6.52
						C314.3,268.28,313.06,270.06,311.41,271.07z"/>
					<path class="st0" d="M320.42,246.44l-17.74-5.92c-0.59-0.2-0.7-0.85-0.33-1.96l0.4-1.19c0.15-0.44,0.32-0.8,0.52-1.06
						c0.2-0.26,0.48-0.44,0.84-0.52l11.7-3.03c0.66-0.19,1.32-0.34,1.97-0.45l0.01-0.12c-0.44-0.1-1.07-0.3-1.9-0.57l-9.2-3.07
						c-0.59-0.2-0.7-0.85-0.33-1.96l0.27-0.8c0.37-1.11,0.85-1.57,1.44-1.37l17.74,5.92c0.59,0.2,0.7,0.85,0.33,1.96l-0.35,1.05
						c-0.15,0.44-0.32,0.8-0.52,1.06c-0.2,0.26-0.48,0.44-0.84,0.52l-11.89,3.12c-0.66,0.19-1.32,0.34-1.97,0.45l-0.01,0.12
						c0.44,0.11,1.07,0.3,1.9,0.57l9.34,3.12c0.59,0.2,0.7,0.85,0.33,1.96l-0.27,0.8C321.5,246.19,321.02,246.64,320.42,246.44z"/>
					<path class="st0" d="M330.19,219.09c-0.23,0.12-0.55,0.11-0.93-0.02l-17.19-5.74c-0.39-0.13-0.64-0.31-0.76-0.55
						s-0.11-0.55,0.02-0.93l1.98-5.93c0.96-2.87,2.53-4.78,4.71-5.75c2.18-0.97,4.83-0.93,7.96,0.11c3.12,1.04,5.27,2.61,6.43,4.69
						c1.16,2.08,1.27,4.56,0.31,7.42l-1.98,5.93C330.61,218.72,330.42,218.98,330.19,219.09z M329.08,211.19
						c0.49-1.48,0.35-2.77-0.43-3.87c-0.78-1.1-2.16-1.99-4.14-2.65c-1.98-0.66-3.61-0.78-4.9-0.37c-1.29,0.41-2.18,1.36-2.67,2.84
						l-0.92,2.74l12.14,4.05L329.08,211.19z"/>
					<path class="st0" d="M343.62,178.87c-0.23,0.12-0.55,0.11-0.93-0.02l-17.19-5.74c-0.39-0.13-0.64-0.31-0.76-0.55
						s-0.11-0.55,0.02-0.93l1.83-5.49c0.75-2.25,1.74-3.76,2.96-4.53c1.22-0.76,2.6-0.89,4.13-0.38c0.92,0.31,1.67,0.87,2.25,1.69
						c0.58,0.82,0.9,1.72,0.96,2.71l0.12,0.01c0.59-1.02,1.43-1.73,2.53-2.14c1.1-0.41,2.19-0.44,3.26-0.08
						c1.81,0.6,3.01,1.65,3.59,3.13c0.59,1.48,0.49,3.37-0.28,5.68l-1.96,5.88C344.04,178.5,343.86,178.75,343.62,178.87z
						 M334.19,169.14c0.27-0.81,0.29-1.51,0.05-2.09c-0.24-0.58-0.66-0.98-1.27-1.18c-1.37-0.46-2.33,0.16-2.9,1.84l-0.66,1.97
						l4.13,1.38L334.19,169.14z M342.5,171.02c0.27-0.81,0.29-1.51,0.05-2.08c-0.24-0.57-0.72-0.98-1.44-1.22
						c-0.72-0.24-1.35-0.16-1.88,0.23c-0.53,0.4-0.96,1.08-1.28,2.04l-0.76,2.27l4.41,1.47L342.5,171.02z"/>
					<path class="st0" d="M350.73,155.68l-17.74-5.92c-0.61-0.2-0.73-0.86-0.36-1.97l0.32-0.97c0.37-1.11,0.86-1.56,1.47-1.36
						l17.74,5.92c0.61,0.2,0.73,0.86,0.36,1.97l-0.32,0.97C351.83,155.43,351.34,155.88,350.73,155.68z"/>
					<path class="st0" d="M356.97,137l-14.94-4.99l-1.47,4.41c-0.1,0.3-0.28,0.47-0.55,0.53c-0.27,0.06-0.64,0-1.12-0.16l-0.86-0.29
						c-0.48-0.16-0.81-0.34-0.99-0.55c-0.18-0.2-0.22-0.45-0.12-0.75l4.38-13.11c0.1-0.29,0.28-0.47,0.54-0.53
						c0.26-0.06,0.64,0,1.12,0.16l0.86,0.29c0.48,0.16,0.81,0.34,0.99,0.55c0.18,0.2,0.22,0.45,0.12,0.75l-1.47,4.41l14.94,4.99
						c0.59,0.2,0.7,0.85,0.33,1.96l-0.33,0.97C358.04,136.74,357.56,137.19,356.97,137z"/>
					<path class="st0" d="M363.98,117.9c-0.23,0.12-0.55,0.11-0.93-0.02l-17.19-5.74c-0.39-0.13-0.64-0.31-0.76-0.55
						s-0.11-0.55,0.02-0.93l3.25-9.73c0.1-0.29,0.28-0.47,0.54-0.53c0.27-0.06,0.64,0,1.12,0.16l0.86,0.29
						c0.48,0.16,0.81,0.34,0.99,0.55c0.18,0.2,0.22,0.45,0.12,0.75l-2.19,6.57l4.02,1.34l1.94-5.82c0.1-0.3,0.28-0.47,0.55-0.53
						c0.26-0.06,0.64,0,1.12,0.16l0.86,0.29c0.48,0.16,0.81,0.34,0.99,0.55c0.18,0.2,0.22,0.45,0.12,0.75l-1.94,5.82l4.49,1.5
						l2.2-6.6c0.1-0.3,0.28-0.47,0.55-0.53c0.26-0.06,0.64,0,1.12,0.16l0.86,0.29c0.48,0.16,0.81,0.34,0.99,0.55
						c0.18,0.2,0.22,0.45,0.12,0.75l-3.26,9.76C364.39,117.53,364.21,117.79,363.98,117.9z"/>
					<path class="st0" d="M371.95,94.33c-0.59,0.89-1.17,1.55-1.77,1.97c-0.52,0.4-0.96,0.54-1.31,0.42
						c-0.28-0.09-0.58-0.3-0.9-0.64c-0.32-0.33-0.58-0.69-0.78-1.06c-0.2-0.38-0.27-0.66-0.21-0.84c0.04-0.11,0.23-0.33,0.59-0.66
						c0.49-0.49,0.9-0.95,1.23-1.38s0.6-0.96,0.81-1.61c0.24-0.72,0.3-1.38,0.19-1.99c-0.12-0.6-0.53-1.03-1.25-1.27
						c-0.59-0.2-1.14-0.12-1.64,0.24c-0.5,0.36-1.14,0.99-1.92,1.9l-0.98,1.09c-0.94,0.98-1.94,1.66-2.98,2.06
						c-1.04,0.39-2.32,0.33-3.84-0.17c-1.26-0.42-2.2-1.08-2.84-1.98c-0.63-0.9-0.98-1.91-1.05-3.04c-0.06-1.13,0.1-2.27,0.48-3.42
						c0.32-0.94,0.7-1.76,1.15-2.47c0.45-0.7,0.91-1.22,1.37-1.56c0.43-0.31,0.8-0.41,1.09-0.31c0.26,0.09,0.55,0.28,0.89,0.57
						c0.33,0.29,0.6,0.61,0.81,0.95c0.21,0.34,0.28,0.61,0.21,0.81c-0.03,0.09-0.13,0.23-0.29,0.41c-0.16,0.18-0.3,0.34-0.4,0.47
						c-0.45,0.59-0.79,1.25-1.03,1.97c-0.32,0.96-0.39,1.68-0.2,2.17c0.19,0.48,0.48,0.79,0.89,0.93c0.48,0.16,0.92,0.16,1.32,0.01
						c0.4-0.15,0.76-0.38,1.08-0.69c0.32-0.31,0.75-0.77,1.31-1.38c0.8-0.9,1.5-1.62,2.12-2.16s1.39-0.92,2.3-1.16
						s1.95-0.16,3.12,0.22c1.42,0.48,2.49,1.16,3.19,2.07c0.71,0.9,1.11,1.89,1.2,2.97c0.09,1.08-0.05,2.16-0.41,3.25
						C373.05,92.34,372.54,93.44,371.95,94.33z"/>
				</g>
			</g>
			<g>
				<path class="st0" d="M115.96,387.15c4.29-4.19,8.59-8.37,12.88-12.56c1.18-0.72,2.44-1.32,3.51-2.17
					c37.03-29.25,89.26-33.6,130.38-10.5c7.59,4.26,14.51,9.74,21.74,14.65c4.19,4.29,8.37,8.59,12.56,12.88
					c0.62,1.05,1.12,2.19,1.87,3.14c30.78,39.04,34.19,92.31,8.42,134.87c-3.7,6.11-8.16,11.77-12.27,17.63
					c-4.29,4.19-8.59,8.37-12.88,12.56c-1.17,0.72-2.4,1.35-3.51,2.16c-40.52,29.8-83.48,33.46-128.46,11.41
					c-8.41-4.12-15.8-10.31-23.67-15.55c-3.2-3.28-6.4-6.57-9.6-9.85c21.02-5.15,26.58-20.67,15.17-42.54
					c17.49-5.81,27.96-17.76,28.75-36.27c0.91-21.23-10.52-34.41-30.17-40.85c5.05-17.1-0.07-27.63-16.73-34.89
					C114.62,389.9,115.29,388.53,115.96,387.15z"/>
				<path class="st0" d="M65.96,493.53c-3.04-9.99-1.4-16.44,5.16-20.39c6.39-3.85,13.8-2.89,18.72,2.42
					c4.48,4.83,5.16,12.61,1.58,18.08c-3.85,5.89-11.46,8.24-18.15,5.61c-0.96-0.38-1.92-0.78-2.88-1.17
					C68.91,496.56,67.43,495.05,65.96,493.53z"/>
				<path class="st0" d="M88.68,413.75c4.8-1.38,9.54-1.61,12.84,2.85c2.88,3.89,2.94,8.2-0.18,12.16
					c-2.83,3.59-6.72,4.6-10.85,3.07c-4.6-1.7-6.75-5.4-6.37-10.36c0.1-1.35,0.5-2.68,0.76-4.02
					C86.15,416.21,87.41,414.98,88.68,413.75z"/>
				<path class="st0" d="M128.11,458.22c3.98,3.96,4.05,9.59,0.17,13.59c-3.89,4.01-10.19,4.01-14.05-0.01
					c-3.65-3.8-3.55-10.03,0.22-13.73C118.28,454.32,124.26,454.38,128.11,458.22z"/>
				<path class="st0" d="M533.62,286.67c7.46-56.02-7.81-107.7-34-156.15c-12.88-23.82-24.33-47.21-25.32-74.68
					c-0.69-19.28-9.75-31.17-29.79-33.8c-5.58-0.73-11.07-3.05-16.3-5.34c-9.65-4.22-14.47-2.29-18.04,8.63
					c-33.31,101.99-67.18,203.8-100.99,305.63c-9,27.1-18.23,54.12-27.34,80.99c17.49,15.21,29.51,35.67,43.03,54.77
					c29.52-87.82,58.52-175.82,87.76-263.74c1.37-4.11,3.21-8.06,5.1-12.77c2.97,1.66,5.06,2.18,6.13,3.52
					c15.2,19.01,31.72,37.18,44.92,57.5c12.02,18.51,12.3,39.83,3.3,60.5c-5.48,12.59-11.34,25.02-17.03,37.52
					c-1.11,2.43-2.43,4.78-3.31,7.29c-4.45,12.72-1.2,24.86,8.09,30.61c9.21,5.71,20.48,3.93,29.67-6.63
					C513.02,353.49,528.85,322.47,533.62,286.67z"/>
			</g>
		</g>
	</g>
	<g id="Text_3_">
	</g>
</g>
<g id="Logo_03:_600_x__x_600_px">
	<g id="Graphic_Elements_2_">
	</g>
	<g id="Text_2_">
	</g>
</g>
<g id="Logo_02:_600_x__x_600_px">
	<g id="Graphic_Elements_1_">
	</g>
	<g id="Text_1_">
	</g>
</g>
<g id="Logo_01:_600_x__x_600_px">
	<g id="Graphic_Elements">
	</g>
	<g id="Text">
	</g>
</g>
</svg>
